<svg width="27" height="16" viewBox="0 0 27 16" fill="none" xmlns="http://www.w3.org/2000/svg">
<rect x="0.333008" y="1.06677" width="23.4667" height="14.9333" rx="1.06667" fill="#DBDBDB"/>
<rect x="0.333008" y="3.20001" width="23.4667" height="3.2" fill="#B0B0B0"/>
<rect x="2.4668" y="8.5332" width="19.2" height="2.13333" rx="1.06667" fill="white"/>
<circle cx="21.6663" cy="5.33333" r="5.33333" fill="#4C4C4C"/>
<path d="M19.2666 3.3337V7.13318H18.5348V4.22953L17.8109 4.50818V3.8988L19.1859 3.3337H19.2666ZM21.001 4.90141H21.3577C21.448 4.90141 21.5227 4.88057 21.5817 4.83891C21.6407 4.79551 21.6841 4.73474 21.7119 4.65662C21.7397 4.57676 21.7536 4.48387 21.7536 4.37797C21.7536 4.28422 21.7406 4.20176 21.7145 4.13057C21.6885 4.05766 21.6485 4.00037 21.5947 3.9587C21.5409 3.9153 21.4732 3.8936 21.3916 3.8936C21.3291 3.8936 21.2701 3.91096 21.2145 3.94568C21.1607 3.97866 21.1182 4.02728 21.0869 4.09151C21.0557 4.15575 21.04 4.23214 21.04 4.32068H20.3083C20.3083 4.11235 20.3551 3.93092 20.4489 3.77641C20.5444 3.62189 20.6729 3.5021 20.8343 3.41703C20.9958 3.33023 21.1746 3.28682 21.3708 3.28682C21.5913 3.28682 21.7848 3.32762 21.9515 3.40922C22.1182 3.49082 22.2484 3.61235 22.3421 3.7738C22.4359 3.93353 22.4827 4.13144 22.4827 4.36755C22.4827 4.48908 22.4602 4.60627 22.415 4.71912C22.3699 4.83023 22.3039 4.93092 22.2171 5.0212C22.1303 5.11148 22.0244 5.18266 21.8994 5.23474C21.7744 5.28682 21.6329 5.31287 21.4749 5.31287H21.001V4.90141ZM21.001 5.49255V5.09412H21.4749C21.6538 5.09412 21.8091 5.11755 21.9411 5.16443C22.073 5.20957 22.1824 5.27554 22.2692 5.36235C22.3577 5.44915 22.4237 5.55245 22.4671 5.67224C22.5105 5.7903 22.5322 5.92224 22.5322 6.06807C22.5322 6.24516 22.5027 6.40314 22.4437 6.54203C22.3847 6.68092 22.3022 6.79811 22.1963 6.8936C22.0904 6.98908 21.9671 7.062 21.8265 7.11235C21.6859 7.16096 21.5331 7.18526 21.3682 7.18526C21.231 7.18526 21.0965 7.16356 20.9645 7.12016C20.8343 7.07676 20.7171 7.00991 20.613 6.91964C20.5088 6.82936 20.4263 6.71564 20.3656 6.57849C20.3048 6.44134 20.2744 6.27901 20.2744 6.09151H21.0036C21.0036 6.18526 21.0201 6.26946 21.0531 6.34412C21.0878 6.41703 21.1338 6.47432 21.1911 6.51599C21.2484 6.55766 21.3135 6.57849 21.3864 6.57849C21.4715 6.57849 21.5452 6.55679 21.6077 6.51339C21.6702 6.46998 21.718 6.40922 21.751 6.3311C21.784 6.25297 21.8005 6.16269 21.8005 6.06026C21.8005 5.92485 21.7831 5.81634 21.7484 5.73474C21.7137 5.65141 21.6633 5.59064 21.5973 5.55245C21.5314 5.51252 21.4515 5.49255 21.3577 5.49255H21.001ZM23.7041 5.41443L23.1208 5.2686L23.3109 3.34151H25.1416V3.96651H23.9098L23.8395 4.78162C23.8794 4.75384 23.9385 4.72346 24.0166 4.69047C24.0965 4.65748 24.185 4.64099 24.2822 4.64099C24.4402 4.64099 24.5791 4.66964 24.6989 4.72693C24.8204 4.78422 24.9229 4.86755 25.0062 4.97693C25.0895 5.0863 25.1529 5.21998 25.1963 5.37797C25.2397 5.53596 25.2614 5.71478 25.2614 5.91443C25.2614 6.08283 25.2388 6.24342 25.1937 6.3962C25.1485 6.54898 25.0791 6.68439 24.9854 6.80245C24.8916 6.92051 24.7753 7.01426 24.6364 7.0837C24.4992 7.15141 24.3369 7.18526 24.1494 7.18526C24.0088 7.18526 23.8734 7.16096 23.7432 7.11235C23.613 7.06373 23.4958 6.99169 23.3916 6.8962C23.2874 6.79898 23.2041 6.68266 23.1416 6.54724C23.0791 6.41009 23.0479 6.25384 23.0479 6.07849H23.7692C23.7779 6.18092 23.7979 6.26946 23.8291 6.34412C23.8621 6.41877 23.9055 6.47693 23.9593 6.5186C24.0131 6.55853 24.0756 6.57849 24.1468 6.57849C24.218 6.57849 24.2779 6.56113 24.3265 6.52641C24.3768 6.48995 24.4168 6.4396 24.4463 6.37537C24.4758 6.31113 24.4966 6.23648 24.5088 6.15141C24.5227 6.0646 24.5296 5.97172 24.5296 5.87276C24.5296 5.77207 24.5209 5.68092 24.5036 5.59932C24.4862 5.51773 24.4593 5.44741 24.4229 5.38839C24.3864 5.32936 24.3387 5.28422 24.2796 5.25297C24.2223 5.22172 24.1555 5.2061 24.0791 5.2061C23.9715 5.2061 23.8907 5.22866 23.8369 5.2738C23.7848 5.31721 23.7406 5.36408 23.7041 5.41443Z" fill="white"/>
</svg>
