<svg width="17" height="16" viewBox="0 0 17 16" fill="none" xmlns="http://www.w3.org/2000/svg">
<path d="M15.0372 6.69434H14.5002V6.66668H8.50016V9.33334H12.2678C11.7182 10.8857 10.2412 12 8.50016 12C6.29116 12 4.50016 10.209 4.50016 8.00001C4.50016 5.79101 6.29116 4.00001 8.50016 4.00001C9.51983 4.00001 10.4475 4.38468 11.1538 5.01301L13.0395 3.12734C11.8488 2.01768 10.2562 1.33334 8.50016 1.33334C4.8185 1.33334 1.8335 4.31834 1.8335 8.00001C1.8335 11.6817 4.8185 14.6667 8.50016 14.6667C12.1818 14.6667 15.1668 11.6817 15.1668 8.00001C15.1668 7.55301 15.1208 7.11668 15.0372 6.69434Z" fill="#FFC107"/>
<path d="M2.60205 4.89701L4.79238 6.50334C5.38505 5.03601 6.82038 4.00001 8.50005 4.00001C9.51972 4.00001 10.4474 4.38468 11.1537 5.01301L13.0394 3.12734C11.8487 2.01768 10.2561 1.33334 8.50005 1.33334C5.93938 1.33334 3.71872 2.77901 2.60205 4.89701Z" fill="#FF3D00"/>
<path d="M8.49994 14.6667C10.2219 14.6667 11.7866 14.0077 12.9696 12.936L10.9063 11.19C10.2146 11.7163 9.36913 12.0009 8.49994 12C6.76594 12 5.29361 10.8943 4.73894 9.35132L2.56494 11.0263C3.66827 13.1853 5.90894 14.6667 8.49994 14.6667Z" fill="#4CAF50"/>
<path d="M15.037 6.69432H14.5V6.66666H8.5V9.33332H12.2677C12.0047 10.0721 11.5311 10.7177 10.9053 11.1903L10.9063 11.1897L12.9697 12.9357C12.8237 13.0683 15.1667 11.3333 15.1667 7.99999C15.1667 7.55299 15.1207 7.11666 15.037 6.69432Z" fill="#1976D2"/>
</svg>
