<svg width="19" height="18" viewBox="0 0 19 18" fill="none" xmlns="http://www.w3.org/2000/svg">
<path d="M3.49609 12.9053V14.625C3.49609 14.7245 3.5356 14.8198 3.60593 14.8902C3.67625 14.9605 3.77164 15 3.87109 15H5.59459C5.69386 15 5.78906 14.9606 5.85934 14.8905L12.9453 7.80451L10.6953 5.55451L3.60634 12.6405C3.53597 12.7107 3.49631 12.8059 3.49609 12.9053ZM11.6238 4.62526L13.8738 6.87526L14.9688 5.78026C15.1094 5.63961 15.1884 5.44888 15.1884 5.25001C15.1884 5.05114 15.1094 4.8604 14.9688 4.71976L13.7801 3.53026C13.6394 3.38966 13.4487 3.31067 13.2498 3.31067C13.051 3.31067 12.8602 3.38966 12.7196 3.53026L11.6238 4.62526Z" fill="#666666"/>
<line x1="9.5" y1="13" x2="15.5" y2="13" stroke="#666666" stroke-width="2"/>
</svg>
