<svg width="14" height="12" viewBox="0 0 14 12" fill="none" xmlns="http://www.w3.org/2000/svg">
<path d="M3.12663 1.33333C3.12645 1.68695 2.98581 2.02602 2.73563 2.27594C2.48546 2.52587 2.14625 2.66617 1.79263 2.666C1.43901 2.66582 1.09994 2.52517 0.850014 2.275C0.60009 2.02483 0.459784 1.68562 0.459961 1.332C0.460138 0.978374 0.600783 0.639305 0.850957 0.389382C1.10113 0.139458 1.44034 -0.000848031 1.79396 -0.00067122C2.14758 -0.000494409 2.48665 0.140151 2.73657 0.390324C2.9865 0.640498 3.1268 0.979707 3.12663 1.33333ZM3.16663 3.65333H0.499961V12H3.16663V3.65333ZM7.37996 3.65333H4.72663V12H7.35329V7.62C7.35329 5.18 10.5333 4.95333 10.5333 7.62V12H13.1666V6.71333C13.1666 2.6 8.45996 2.75333 7.35329 4.77333L7.37996 3.65333Z" fill="#0076B2"/>
</svg>
