<svg width="28" height="28" viewBox="0 0 28 28" fill="none" xmlns="http://www.w3.org/2000/svg">
<path d="M19.7085 19.6L18.6293 21.6291L23.9129 20.7653C22.8467 20.2305 21.4033 19.8483 19.7085 19.6ZM6.09766 20.0424C3.65046 20.6878 2.1001 21.7453 2.1001 23.3161C2.10111 23.6543 2.17503 23.9883 2.31682 24.2953L10.7966 22.9093L6.09766 20.0424ZM25.7013 22.4L13.8993 24.3236L17.0118 27.8645C22.1229 27.4067 25.9001 25.774 25.9001 23.3161C25.9001 22.9885 25.8295 22.6839 25.7013 22.4ZM11.9051 24.6557L3.93074 25.9591C6.03858 27.2647 9.75894 28 14.0001 28C14.2571 28 14.5083 27.9927 14.7614 27.9874L11.9051 24.6557Z" fill="#F08504"/>
<path d="M14.0004 0C9.43641 0 5.69141 3.73296 5.69141 8.2866C5.69141 10.0512 6.25617 11.695 7.20929 13.0421L7.18073 12.9976L12.5732 22.3191L12.5956 22.349C12.8084 22.6265 13.0156 22.8452 13.2595 23.0065C13.5031 23.1675 13.8055 23.2644 14.102 23.2347C14.6951 23.1753 15.0585 22.7564 15.4032 22.2891L15.4214 22.2648L21.3672 12.1456L21.3708 12.1388C21.5103 11.8868 21.613 11.6306 21.7004 11.3809C22.1011 10.3984 22.3075 9.34761 22.308 8.2866C22.3083 3.73296 18.5644 0 14.0004 0ZM14.0007 1.162C17.9319 1.162 21.1463 4.3694 21.1463 8.2866C21.1463 9.22936 20.9592 10.129 20.6207 10.955L20.6146 10.9696L20.6095 10.9841C20.5339 11.2008 20.4519 11.4002 20.3544 11.5766L14.459 21.609C14.1869 21.9713 13.9881 22.0783 13.9864 22.0786C13.9856 22.0786 13.9825 22.0912 13.9013 22.0371C13.8226 21.9853 13.6885 21.8574 13.5322 21.6563L8.17277 12.3928L8.15793 12.3715C7.33697 11.2109 6.85341 9.8042 6.85341 8.28688C6.85341 4.36968 10.0692 1.16228 14.0004 1.16228M14.0004 3.61116C11.4059 3.61116 9.31237 5.69716 9.31237 8.28688C9.31237 10.8766 11.4059 12.9626 14.0004 12.9626C16.5949 12.9626 18.6876 10.8766 18.6876 8.2866C18.6876 5.69716 16.5949 3.61116 14.0004 3.61116ZM14.0004 4.77316C15.98 4.77316 17.5256 6.31512 17.5256 8.28688C17.5256 10.2586 15.9803 11.8006 14.0004 11.8006C12.0202 11.8006 10.4744 10.2584 10.4744 8.2866C10.4744 6.3154 12.0202 4.77316 14.0004 4.77316Z" fill="#F08504"/>
</svg>
