<svg width="29" height="26" viewBox="0 0 29 26" fill="none" xmlns="http://www.w3.org/2000/svg">
<path d="M22.3339 10.3328C22.3339 10.3328 14.3339 15.6662 14.3339 24.9995M10.7992 11.9102C9.74278 12.6987 8.43769 13.0804 7.12284 12.9854C5.808 12.8904 4.57134 12.325 3.63922 11.3928C0.407223 8.16215 1.05256 1.05282 1.05256 1.05282C1.05256 1.05282 8.16322 0.406154 11.3939 3.63815C12.0023 4.2442 12.4594 4.98506 12.7281 5.8007C12.9968 6.61634 13.0696 7.48381 12.9406 8.33282" stroke="white" stroke-width="2" stroke-linecap="round" stroke-linejoin="round"/>
<path d="M18.286 14.0902C17.4349 13.1644 16.9746 11.9455 17.0012 10.6882C17.0278 9.43092 17.5392 8.23256 18.4287 7.34354C21.3007 4.47154 27.6207 5.04621 27.6207 5.04621C27.6207 5.04621 28.194 11.3662 25.322 14.2382C24.8449 14.7161 24.2736 15.0895 23.6445 15.3347C23.0153 15.5799 22.342 15.6914 21.6673 15.6622M6.33398 6.33288C6.33398 6.33288 14.334 12.9995 14.334 24.9995" stroke="white" stroke-width="2" stroke-linecap="round" stroke-linejoin="round"/>
</svg>
