<svg width="18" height="19" viewBox="0 0 18 19" fill="none" xmlns="http://www.w3.org/2000/svg">
<g clip-path="url(#clip0_1_2900)">
<path d="M12.2735 13.1L11.6015 14.4044L14.892 13.8491C14.2279 13.5053 13.329 13.2596 12.2735 13.1ZM3.79717 13.3844C2.27313 13.7993 1.30762 14.4791 1.30762 15.4889C1.30824 15.7063 1.35428 15.921 1.44258 16.1184L6.72353 15.2274L3.79717 13.3844ZM16.0057 14.9L8.65578 16.1366L10.5941 18.4129C13.7772 18.1186 16.1295 17.069 16.1295 15.4889C16.1295 15.2783 16.0855 15.0825 16.0057 14.9ZM7.41388 16.3501L2.44768 17.188C3.76038 18.0273 6.0773 18.5 8.71855 18.5C8.87863 18.5 9.03505 18.4953 9.19268 18.4919L7.41388 16.3501Z" fill="white"/>
<path d="M8.7195 0.5C5.87719 0.5 3.54492 2.89976 3.54492 5.8271C3.54492 6.96146 3.89664 8.01824 4.49021 8.88422L4.47242 8.8556L7.83071 14.848L7.84466 14.8672C7.97719 15.0456 8.10622 15.1862 8.2581 15.2899C8.40981 15.3934 8.59814 15.4557 8.7828 15.4366C9.15212 15.3984 9.37846 15.1291 9.59312 14.8287L9.60445 14.8131L13.3073 8.30786L13.3096 8.30354C13.3964 8.14154 13.4604 7.97684 13.5148 7.81628C13.7644 7.18472 13.8929 6.50918 13.8932 5.8271C13.8934 2.89976 11.5618 0.5 8.7195 0.5ZM8.71967 1.247C11.1679 1.247 13.1697 3.3089 13.1697 5.8271C13.1697 6.43316 13.0532 7.0115 12.8424 7.5425L12.8386 7.55186L12.8354 7.56122C12.7884 7.70054 12.7373 7.8287 12.6766 7.9421L9.00513 14.3915C8.83563 14.6244 8.71183 14.6932 8.71078 14.6934C8.71026 14.6934 8.70834 14.7015 8.65777 14.6667C8.60877 14.6334 8.52525 14.5512 8.42795 14.4219L5.09023 8.4668L5.08099 8.45312C4.56972 7.70702 4.26858 6.8027 4.26858 5.82728C4.26858 3.30908 6.27127 1.24718 8.7195 1.24718M8.7195 2.82146C7.10374 2.82146 5.79994 4.16246 5.79994 5.82728C5.79994 7.4921 7.10374 8.8331 8.7195 8.8331C10.3353 8.8331 11.6385 7.4921 11.6385 5.8271C11.6385 4.16246 10.3353 2.82146 8.7195 2.82146ZM8.7195 3.56846C9.95233 3.56846 10.9149 4.55972 10.9149 5.82728C10.9149 7.09484 9.95251 8.0861 8.7195 8.0861C7.48632 8.0861 6.5236 7.09466 6.5236 5.8271C6.5236 4.5599 7.48632 3.56846 8.7195 3.56846Z" fill="white"/>
</g>
<defs>
<clipPath id="clip0_1_2900">
<rect width="18" height="18" fill="white" transform="translate(0 0.5)"/>
</clipPath>
</defs>
</svg>
