<svg width="70" height="70" viewBox="0 0 70 70" fill="none" xmlns="http://www.w3.org/2000/svg">
<g clip-path="url(#clip0_1_2973)">
<path d="M49.8745 29.9688C50.273 29.5562 50.4935 29.0036 50.4885 28.4301C50.4835 27.8565 50.2535 27.3079 49.8479 26.9023C49.4423 26.4967 48.8936 26.2667 48.3201 26.2617C47.7465 26.2567 47.194 26.4772 46.7814 26.8757L30.8127 42.8444L23.5939 35.6257C23.1813 35.2272 22.6288 35.0067 22.0552 35.0117C21.4817 35.0167 20.933 35.2467 20.5274 35.6523C20.1218 36.0579 19.8918 36.6065 19.8868 37.1801C19.8818 37.7536 20.1023 38.3062 20.5008 38.7188L29.2508 47.4688C29.661 47.8789 30.2173 48.1093 30.7973 48.1093C31.3774 48.1093 31.9337 47.8789 32.3439 47.4688L49.8439 29.9688H49.8745Z" fill="#43BB8C"/>
<path fill-rule="evenodd" clip-rule="evenodd" d="M35 0C15.6625 0 0 15.6625 0 35C0 54.3375 15.6625 70 35 70C54.3375 70 70 54.3375 70 35C70 15.6625 54.3375 0 35 0ZM4.375 35C4.375 18.0688 18.0688 4.375 35 4.375C51.9312 4.375 65.625 18.0688 65.625 35C65.625 51.9312 51.9312 65.625 35 65.625C18.0688 65.625 4.375 51.9312 4.375 35Z" fill="#43BB8C"/>
</g>
<defs>
<clipPath id="clip0_1_2973">
<rect width="70" height="70" fill="white"/>
</clipPath>
</defs>
</svg>
