<svg width="112" height="20" viewBox="0 0 112 20" fill="none" xmlns="http://www.w3.org/2000/svg">
<rect x="0.416992" y="0.96051" width="26.1359" height="18.0789" rx="1.71491" fill="white" stroke="#CACACA" stroke-width="0.5"/>
<path d="M11.6351 12.9904H10.1855L11.0922 7.38452H12.5416L11.6351 12.9904Z" fill="#142EBD"/>
<path d="M16.8892 7.52163C16.6033 7.4082 16.1498 7.28296 15.5891 7.28296C14.1576 7.28296 13.1496 8.04628 13.1434 9.1376C13.1315 9.94277 13.8651 10.39 14.4138 10.6584C14.9746 10.9328 15.1652 11.1118 15.1652 11.3564C15.1595 11.7319 14.7121 11.905 14.2947 11.905C13.716 11.905 13.406 11.8158 12.9347 11.6069L12.7439 11.5173L12.541 12.7757C12.881 12.9306 13.5073 13.068 14.1576 13.074C15.6786 13.074 16.6687 12.3225 16.6805 11.1596C16.6862 10.5214 16.2989 10.0324 15.4637 9.63284C14.9568 9.37634 14.6463 9.20338 14.6463 8.94094C14.6522 8.70235 14.9089 8.45798 15.4812 8.45798C15.9524 8.44601 16.2986 8.55928 16.5609 8.67263L16.692 8.73216L16.8892 7.52163Z" fill="#142EBD"/>
<path d="M18.8159 11.0045C18.9353 10.6824 19.3946 9.43597 19.3946 9.43597C19.3886 9.44794 19.5137 9.10797 19.5853 8.89927L19.6866 9.38231C19.6866 9.38231 19.9611 10.7242 20.0207 11.0045C19.7942 11.0045 19.1022 11.0045 18.8159 11.0045ZM20.6051 7.38452H19.4839C19.1382 7.38452 18.8755 7.48582 18.7263 7.84965L16.5732 12.9904H18.0942C18.0942 12.9904 18.3446 12.2985 18.3984 12.1494C18.5652 12.1494 20.0448 12.1494 20.2594 12.1494C20.3011 12.3463 20.4324 12.9904 20.4324 12.9904H21.7745L20.6051 7.38452Z" fill="#142EBD"/>
<path d="M8.97423 7.38452L7.55468 11.2072L7.39956 10.4319C7.13711 9.53735 6.31403 8.56541 5.39551 8.08213L6.69577 12.9845H8.22859L10.507 7.38452H8.97423Z" fill="#142EBD"/>
<path d="M6.23684 7.38452H3.90472L3.88086 7.49779C5.70006 7.963 6.90489 9.08435 7.3999 10.4322L6.89292 7.85575C6.80945 7.49771 6.55295 7.39633 6.23684 7.38452Z" fill="#142EBD"/>
<rect x="29.2324" y="1.21051" width="25.6359" height="17.5789" rx="1.46491" fill="black"/>
<path fill-rule="evenodd" clip-rule="evenodd" d="M42.2333 13.7772C41.3605 14.5304 40.2284 14.9851 38.9913 14.9851C36.2309 14.9851 33.9932 12.7214 33.9932 9.92893C33.9932 7.13651 36.2309 4.8728 38.9913 4.8728C40.2284 4.8728 41.3605 5.32748 42.2333 6.08066C43.1061 5.32751 44.2382 4.87285 45.4753 4.87285C48.2357 4.87285 50.4734 7.13655 50.4734 9.92897C50.4734 12.7214 48.2357 14.9851 45.4753 14.9851C44.2382 14.9851 43.106 14.5304 42.2333 13.7772Z" fill="#ED0006"/>
<path fill-rule="evenodd" clip-rule="evenodd" d="M42.2334 13.7773C43.3081 12.8499 43.9895 11.4699 43.9895 9.92899C43.9895 8.38804 43.3081 7.0081 42.2334 6.08071C43.1062 5.32754 44.2383 4.87286 45.4754 4.87286C48.2358 4.87286 50.4735 7.13657 50.4735 9.92899C50.4735 12.7214 48.2358 14.9851 45.4754 14.9851C44.2383 14.9851 43.1062 14.5304 42.2334 13.7773Z" fill="#F9A000"/>
<path fill-rule="evenodd" clip-rule="evenodd" d="M42.2336 13.7772C43.3082 12.8498 43.9897 11.4699 43.9897 9.92895C43.9897 8.38801 43.3082 7.00808 42.2336 6.08069C41.159 7.00808 40.4775 8.38801 40.4775 9.92895C40.4775 11.4699 41.159 12.8498 42.2336 13.7772Z" fill="#FF5E00"/>
<mask id="mask0_130_2261" style="mask-type:alpha" maskUnits="userSpaceOnUse" x="57" y="1" width="27" height="18">
<rect x="57.7988" y="1.21051" width="25.6359" height="17.5789" fill="#016FD0"/>
</mask>
<g mask="url(#mask0_130_2261)">
<rect x="57.7988" y="1.21051" width="25.6359" height="17.5789" rx="1.46491" fill="#016FD0"/>
<path d="M62.7852 14.6588V10.6257H67.0555L67.5136 11.2229L67.9869 10.6257H83.487V14.3806C83.487 14.3806 83.0817 14.6547 82.6129 14.6588H74.0301L73.5136 14.023V14.6588H71.8209V13.5735C71.8209 13.5735 71.5896 13.725 71.0897 13.725H70.5136V14.6588H67.9507L67.4932 14.0487L67.0287 14.6588H62.7852Z" fill="white"/>
<path d="M57.7988 7.58608L58.7618 5.34106H60.4272L60.9736 6.59863V5.34106H63.0438L63.3692 6.25L63.6846 5.34106H72.9776V5.79802C72.9776 5.79802 73.4661 5.34106 74.2689 5.34106L77.2842 5.3516L77.8212 6.59271V5.34106H79.5537L80.0305 6.05398V5.34106H81.7788V9.37415H80.0305L79.5735 8.65893V9.37415H77.0282L76.7722 8.73839H76.088L75.8362 9.37415H74.11C73.4192 9.37415 72.9776 8.92653 72.9776 8.92653V9.37415H70.3749L69.8584 8.73839V9.37415H60.1804L59.9246 8.73839H59.2426L58.9886 9.37415H57.7988V7.58608Z" fill="white"/>
<path d="M59.1016 5.83807L57.8027 8.85793H58.6483L58.888 8.25321H60.2812L60.5196 8.85793H61.3838L60.0862 5.83807H59.1016ZM59.5821 6.54088L60.0068 7.59759H59.1562L59.5821 6.54088Z" fill="#016FD0"/>
<path d="M61.4736 8.85725V5.8374L62.6753 5.84187L63.3742 7.78887L64.0564 5.8374H65.2484V8.85725H64.4935V6.6321L63.6932 8.85725H63.0311L62.2286 6.6321V8.85725H61.4736Z" fill="#016FD0"/>
<path d="M65.7656 8.85728V5.8374H68.2292V6.5129H66.5285V7.02946H68.1895V7.66522H66.5285V8.20165H68.2292V8.85728H65.7656Z" fill="#016FD0"/>
<path d="M68.666 5.83807V8.85795H69.421V7.7851H69.7389L70.6441 8.85795H71.5667L70.5733 7.74537C70.981 7.71096 71.4015 7.36105 71.4015 6.8178C71.4015 6.18231 70.9028 5.83807 70.3461 5.83807H68.666ZM69.421 6.51357H70.284C70.491 6.51357 70.6416 6.67551 70.6416 6.83145C70.6416 7.03208 70.4465 7.14934 70.2952 7.14934H69.421V6.51357Z" fill="#016FD0"/>
<path d="M72.4818 8.85728H71.7109V5.8374H72.4818V8.85728Z" fill="#016FD0"/>
<path d="M74.3089 8.85728H74.1425C73.3374 8.85728 72.8486 8.22301 72.8486 7.35976C72.8486 6.47518 73.332 5.8374 74.3486 5.8374H75.1831V6.55264H74.3181C73.9054 6.55264 73.6135 6.87472 73.6135 7.36721C73.6135 7.95205 73.9473 8.19768 74.4281 8.19768H74.6268L74.3089 8.85728Z" fill="#016FD0"/>
<path d="M75.9522 5.83807L74.6533 8.85793H75.4989L75.7386 8.25321H77.1318L77.3702 8.85793H78.2344L76.9368 5.83807H75.9522ZM76.4327 6.54088L76.8574 7.59759H76.0068L76.4327 6.54088Z" fill="#016FD0"/>
<path d="M78.3223 8.85728V5.8374H79.2821L80.5077 7.73476V5.8374H81.2627V8.85728H80.3339L79.0772 6.91026V8.85728H78.3223Z" fill="#016FD0"/>
<path d="M63.3018 14.1423V11.1224H65.7653V11.7979H64.0647V12.3145H65.7256V12.9503H64.0647V13.4867H65.7653V14.1423H63.3018Z" fill="#016FD0"/>
<path d="M75.373 14.1423V11.1224H77.8366V11.7979H76.136V12.3145H77.789V12.9503H76.136V13.4867H77.8366V14.1423H75.373Z" fill="#016FD0"/>
<path d="M65.8616 14.1423L67.0611 12.651L65.833 11.1224H66.7842L67.5155 12.0674L68.2494 11.1224H69.1633L67.9514 12.6324L69.1531 14.1423H68.2021L67.4919 13.2122L66.7991 14.1423H65.8616Z" fill="#016FD0"/>
<path d="M69.2422 11.1228V14.1427H70.017V13.189H70.8117C71.4842 13.189 71.9939 12.8323 71.9939 12.1385C71.9939 11.5638 71.5941 11.1228 70.9098 11.1228H69.2422ZM70.017 11.8058H70.8539C71.0712 11.8058 71.2265 11.9389 71.2265 12.1534C71.2265 12.355 71.072 12.5011 70.8515 12.5011H70.017V11.8058Z" fill="#016FD0"/>
<path d="M72.3223 11.1224V14.1423H73.0772V13.0695H73.3951L74.3003 14.1423H75.2229L74.2296 13.0297C74.6372 12.9953 75.0578 12.6454 75.0578 12.1022C75.0578 11.4667 74.559 11.1224 74.0023 11.1224H72.3223ZM73.0772 11.7979H73.9402C74.1473 11.7979 74.2979 11.9599 74.2979 12.1158C74.2979 12.3164 74.1027 12.4337 73.9514 12.4337H73.0772V11.7979Z" fill="#016FD0"/>
<path d="M78.1867 14.1423V13.4867H79.6976C79.9212 13.4867 80.018 13.3659 80.018 13.2334C80.018 13.1064 79.9215 12.9781 79.6976 12.9781H79.0148C78.4214 12.9781 78.0908 12.6165 78.0908 12.0736C78.0908 11.5894 78.3935 11.1224 79.2754 11.1224H80.7456L80.4278 11.8019H79.1562C78.9132 11.8019 78.8383 11.9295 78.8383 12.0513C78.8383 12.1764 78.9308 12.3145 79.1165 12.3145H79.8317C80.4933 12.3145 80.7804 12.6898 80.7804 13.1812C80.7804 13.7096 80.4605 14.1423 79.7957 14.1423H78.1867Z" fill="#016FD0"/>
<path d="M80.9572 14.1423V13.4867H82.4681C82.6917 13.4867 82.7885 13.3659 82.7885 13.2334C82.7885 13.1064 82.692 12.9781 82.4681 12.9781H81.7853C81.1919 12.9781 80.8613 12.6165 80.8613 12.0736C80.8613 11.5894 81.164 11.1224 82.0459 11.1224H83.4861L83.1983 11.8019H81.9267C81.6837 11.8019 81.6088 11.9295 81.6088 12.0513C81.6088 12.1764 81.7013 12.3145 81.887 12.3145H82.6022C83.2638 12.3145 83.5509 12.6898 83.5509 13.1812C83.5509 13.7096 83.231 14.1423 82.5662 14.1423H80.9572Z" fill="#016FD0"/>
</g>
<rect x="86.3643" y="1.21051" width="25.6359" height="17.5789" rx="1.46491" fill="#232342"/>
<path d="M97.5342 18.7894L112 14.5778V17.3245C112 18.1335 111.344 18.7894 110.535 18.7894H97.5342Z" fill="#FD6020"/>
<path fill-rule="evenodd" clip-rule="evenodd" d="M108.474 8.25001C109.27 8.25001 109.708 8.60418 109.708 9.27318C109.748 9.78476 109.389 10.2176 108.912 10.2963L109.986 11.7524H109.151L108.235 10.3357H108.156V11.7524H107.479V8.25001H108.474ZM108.156 9.86339H108.355C108.793 9.86339 108.992 9.66663 108.992 9.31246C108.992 8.99764 108.793 8.80087 108.355 8.80087H108.156V9.86339ZM105.132 11.7524H107.042V11.1621H105.808V10.2176H107.002V9.62735H105.808V8.8403H107.042V8.25001H105.132V11.7524ZM103.142 10.6112L102.227 8.25001H101.51L102.983 11.8311H103.341L104.813 8.25001H104.097L103.142 10.6112ZM95.0641 10.0209C95.0641 11.0047 95.8599 11.8311 96.8547 11.8311C97.1731 11.8311 97.4516 11.7524 97.7302 11.6343V10.8473C97.5312 11.0834 97.2527 11.2408 96.9343 11.2408C96.2977 11.2408 95.7803 10.7686 95.7803 10.1389V10.0602C95.7406 9.43059 96.2579 8.87966 96.8945 8.8403C97.2129 8.8403 97.5312 8.99771 97.7302 9.23383V8.44678C97.4914 8.28937 97.1731 8.25002 96.8945 8.25002C95.8599 8.17131 95.0641 8.99771 95.0641 10.0209ZM93.8305 9.588C93.4326 9.43059 93.3132 9.35189 93.3132 9.15512C93.353 8.91901 93.552 8.72225 93.7907 8.7616C93.9897 8.7616 94.1886 8.87966 94.3478 9.03707L94.7059 8.56483C94.4274 8.32872 94.0693 8.17131 93.7111 8.17131C93.154 8.13196 92.6765 8.56483 92.6367 9.11577V9.15512C92.6367 9.62735 92.8357 9.90282 93.4724 10.0996C93.6315 10.1389 93.7907 10.2176 93.9499 10.2963C94.0693 10.3751 94.1488 10.4931 94.1488 10.6505C94.1488 10.926 93.9101 11.1621 93.6713 11.1621H93.6315C93.3132 11.1621 93.0346 10.9653 92.9153 10.6899L92.4776 11.1228C92.7163 11.5556 93.1938 11.7917 93.6713 11.7917C94.308 11.8311 94.8253 11.3589 94.8651 10.7292V10.6112C94.8253 10.1389 94.6264 9.90282 93.8305 9.588ZM91.5225 11.7524H92.199V8.25001H91.5225V11.7524ZM88.3789 8.25001H89.3737H89.5727C90.5277 8.28936 91.2838 9.07641 91.244 10.0209C91.244 10.5325 91.0052 11.0047 90.6073 11.3589C90.2492 11.6343 89.8114 11.7917 89.3737 11.7524H88.3789V8.25001ZM89.2543 11.162C89.5727 11.2014 89.9308 11.0833 90.1696 10.8866C90.4083 10.6505 90.5277 10.3356 90.5277 9.98147C90.5277 9.66665 90.4083 9.35183 90.1696 9.11571C89.9308 8.91895 89.5727 8.80089 89.2543 8.84024H89.0554V11.162H89.2543Z" fill="white"/>
<path fill-rule="evenodd" clip-rule="evenodd" d="M99.7602 8.16876C98.7653 8.16876 97.9297 8.95581 97.9297 9.97898C97.9297 10.9628 98.7255 11.7892 99.7602 11.8286C100.795 11.8679 101.591 11.0415 101.63 10.0183C101.591 8.99517 100.795 8.16876 99.7602 8.16876V8.16876Z" fill="#FD6020"/>
</svg>
